<svg width="21" height="21" viewBox="0 0 21 21" fill="none" xmlns="http://www.w3.org/2000/svg">
<path d="M20.6662 10.5C20.6662 16.0228 16.189 20.5 10.6662 20.5C5.14332 20.5 0.666168 16.0228 0.666168 10.5C0.666168 4.97715 5.14332 0.5 10.6662 0.5C16.189 0.5 20.6662 4.97715 20.6662 10.5Z" fill="#FFFAFB"/>
<path d="M7.23257 8.40697C7.19659 7.83127 7.6538 7.34459 8.23062 7.34459H13.1017C13.6785 7.34459 14.1358 7.83127 14.0998 8.40697L13.7248 14.407C13.6918 14.934 13.2548 15.3446 12.7267 15.3446H8.60562C8.07756 15.3446 7.64051 14.934 7.60757 14.407L7.23257 8.40697Z" fill="#BB5F5F"/>
<path d="M7.16617 6.62639C7.16617 6.35025 7.39003 6.12639 7.66617 6.12639H13.6662C13.9423 6.12639 14.1662 6.35025 14.1662 6.62639C14.1662 6.90253 13.9423 7.12639 13.6662 7.12639H7.66617C7.39003 7.12639 7.16617 6.90253 7.16617 6.62639Z" fill="#BB5F5F"/>
<path d="M9.46506 5.65541H11.8672V6.12639H9.46506V5.65541Z" fill="#BB5F5F"/>
</svg>
