<svg width="61" height="61" viewBox="0 0 61 61" fill="none" xmlns="http://www.w3.org/2000/svg">
<path d="M60.0278 30.5C60.0278 47.0685 46.5964 60.5 30.0278 60.5C13.4593 60.5 0.027832 47.0685 0.027832 30.5C0.027832 13.9315 13.4593 0.5 30.0278 0.5C46.5964 0.5 60.0278 13.9315 60.0278 30.5Z" fill="#FFFAFB" fill-opacity="0.74"/>
<path d="M27.6851 38.5635C25.1571 38.5635 23.8931 38.2595 23.8931 37.6515V35.8275C23.8931 34.3875 25.0931 32.5475 27.4931 30.3075C28.3891 29.4755 29.2051 28.5315 29.9411 27.4755C30.7091 26.4195 31.0931 25.4595 31.0931 24.5955C31.0931 22.9955 30.1651 22.1955 28.3091 22.1955C26.4851 22.1955 24.6451 22.8035 22.7891 24.0195C21.5731 22.8035 20.7251 21.4275 20.2451 19.8915C20.0531 19.3795 19.9571 18.9315 19.9571 18.5475C19.9571 18.1315 20.0371 17.7475 20.1971 17.3955C20.4531 16.5635 21.6371 15.7795 23.7491 15.0435C25.8931 14.3075 28.1491 13.9395 30.5171 13.9395C34.1011 13.9395 36.7891 14.7075 38.5811 16.2435C40.3731 17.7795 41.2691 19.8755 41.2691 22.5315C41.2691 23.7475 40.9651 24.9475 40.3571 26.1315C39.7811 27.2835 39.0611 28.3075 38.1971 29.2035C37.3651 30.0675 36.5331 30.8835 35.7011 31.6515C33.6851 33.5715 32.6771 35.0275 32.6771 36.0195V37.4595C32.6771 37.8435 32.0851 38.1315 30.9011 38.3235C29.7171 38.4835 28.6451 38.5635 27.6851 38.5635ZM32.3891 48.2595C32.3891 48.4515 31.0611 48.5475 28.4051 48.5475C25.7811 48.5475 24.4691 48.4675 24.4691 48.3075V40.7715C24.4691 40.5155 25.7811 40.3875 28.4051 40.3875C31.0611 40.3875 32.3891 40.4675 32.3891 40.6275V48.2595Z" fill="#5FBB97"/>
</svg>
